# xmcd CD database file
#
# Track frame offsets:
#	150
#	13484
#	27912
#	52472
#	81099
#	115759
#	126399
#	137179
#	149075
#	159714
#	172621
#	185155
#	199696
#	212979
#	225147
#	239727
#	252719
#	267989
#
# Disc length: 3947 seconds
#
# Revision: 0
# Processed by: cddbd v1.4PL0 Copyright (c) Steve Scherf et al.
# Submitted via: CDex 1.50
#
DISCID=1c0f6912
DTITLE=Dizzy Gillespie - dg (Disk 2)
DYEAR=1900
DGENRE=Jazz
TTITLE0=Disorder At The Border
TTITLE1=Bu-Dee-Daht
TTITLE2=Perdido
TTITLE3=Stardust
TTITLE4=Kerouac
TTITLE5=Close Shave
TTITLE6=Rose Room
TTITLE7=Opus X
TTITLE8=4-F Blues
TTITLE9=Jersey Bounce
TTITLE10=Ooh, Ooh, My Ooh Ooh
TTITLE11=You´re Only Happy When I´m Blue
TTITLE12=I Stay In The Mood For You
TTITLE13=Ten Lessions With Timothy
TTITLE14=Gonna Buy Me A Telephone
TTITLE15=Dream Of You
TTITLE16=Irresistible You
TTITLE17=Up On Teddy´s Hill
EXTD=
EXTT0=
EXTT1=
EXTT2=
EXTT3=
EXTT4=
EXTT5=
EXTT6=
EXTT7=
EXTT8=
EXTT9=
EXTT10=
EXTT11=
EXTT12=
EXTT13=
EXTT14=
EXTT15=
EXTT16=
EXTT17=
PLAYORDER=
